<?xml version="1.0" encoding="UTF-8" standalone="no"?>
<!DOCTYPE svg PUBLIC "-//W3C//DTD SVG 1.1//EN"
 "http://www.w3.org/Graphics/SVG/1.1/DTD/svg11.dtd">
<!-- Generated by graphviz version 9.0.0 (20230911.1827)
 -->
<!-- Title: dependency&#45;cruiser output Pages: 1 -->
<svg width="573pt" height="374pt"
 viewBox="0.00 0.00 572.50 374.00" xmlns="http://www.w3.org/2000/svg" xmlns:xlink="http://www.w3.org/1999/xlink">
<g id="graph0" class="graph" transform="scale(1 1) rotate(0) translate(4 370)">
<title>dependency&#45;cruiser output</title>
<polygon fill="white" stroke="none" points="-4,4 -4,-370 568.5,-370 568.5,4 -4,4"/>
<g id="clust1" class="cluster">
<title>cluster_src</title>
<path fill="#ffffff" stroke="black" stroke-width="2" d="M20,-8C20,-8 544.5,-8 544.5,-8 550.5,-8 556.5,-14 556.5,-20 556.5,-20 556.5,-346 556.5,-346 556.5,-352 550.5,-358 544.5,-358 544.5,-358 20,-358 20,-358 14,-358 8,-352 8,-346 8,-346 8,-20 8,-20 8,-14 14,-8 20,-8"/>
<text text-anchor="middle" x="282.25" y="-345.45" font-family="Helvetica,sans-Serif" font-weight="bold" font-size="9.00">src</text>
</g>
<g id="clust2" class="cluster">
<title>cluster_src/Canvas</title>
<path fill="#ffffff" stroke="black" stroke-width="2" d="M168,-106C168,-106 228.5,-106 228.5,-106 234.5,-106 240.5,-112 240.5,-118 240.5,-118 240.5,-146 240.5,-146 240.5,-152 234.5,-158 228.5,-158 228.5,-158 168,-158 168,-158 162,-158 156,-152 156,-146 156,-146 156,-118 156,-118 156,-112 162,-106 168,-106"/>
<text text-anchor="middle" x="198.25" y="-145.45" font-family="Helvetica,sans-Serif" font-weight="bold" font-size="9.00">Canvas</text>
</g>
<g id="clust3" class="cluster">
<title>cluster_src/CipArea</title>
<path fill="#ffffff" stroke="black" stroke-width="2" d="M169.5,-210C169.5,-210 328.88,-210 328.88,-210 334.88,-210 340.88,-216 340.88,-222 340.88,-222 340.88,-250 340.88,-250 340.88,-256 334.88,-262 328.88,-262 328.88,-262 169.5,-262 169.5,-262 163.5,-262 157.5,-256 157.5,-250 157.5,-250 157.5,-222 157.5,-222 157.5,-216 163.5,-210 169.5,-210"/>
<text text-anchor="middle" x="249.19" y="-249.45" font-family="Helvetica,sans-Serif" font-weight="bold" font-size="9.00">CipArea</text>
</g>
<g id="clust4" class="cluster">
<title>cluster_src/Clip</title>
<path fill="#ffffff" stroke="black" stroke-width="2" d="M276,-270C276,-270 424.88,-270 424.88,-270 430.88,-270 436.88,-276 436.88,-282 436.88,-282 436.88,-310 436.88,-310 436.88,-316 430.88,-322 424.88,-322 424.88,-322 276,-322 276,-322 270,-322 264,-316 264,-310 264,-310 264,-282 264,-282 264,-276 270,-270 276,-270"/>
<text text-anchor="middle" x="350.44" y="-309.45" font-family="Helvetica,sans-Serif" font-weight="bold" font-size="9.00">Clip</text>
</g>
<g id="clust5" class="cluster">
<title>cluster_src/Core</title>
<path fill="#ffffff" stroke="black" stroke-width="2" d="M267.62,-76C267.62,-76 536.5,-76 536.5,-76 542.5,-76 548.5,-82 548.5,-88 548.5,-88 548.5,-190 548.5,-190 548.5,-196 542.5,-202 536.5,-202 536.5,-202 267.62,-202 267.62,-202 261.62,-202 255.62,-196 255.62,-190 255.62,-190 255.62,-88 255.62,-88 255.62,-82 261.62,-76 267.62,-76"/>
<text text-anchor="middle" x="402.06" y="-189.45" font-family="Helvetica,sans-Serif" font-weight="bold" font-size="9.00">Core</text>
</g>
<g id="clust6" class="cluster">
<title>cluster_src/worker</title>
<path fill="#ffffff" stroke="black" stroke-width="2" d="M260.5,-16C260.5,-16 337.5,-16 337.5,-16 343.5,-16 349.5,-22 349.5,-28 349.5,-28 349.5,-56 349.5,-56 349.5,-62 343.5,-68 337.5,-68 337.5,-68 260.5,-68 260.5,-68 254.5,-68 248.5,-62 248.5,-56 248.5,-56 248.5,-28 248.5,-28 248.5,-22 254.5,-16 260.5,-16"/>
<text text-anchor="middle" x="299" y="-55.45" font-family="Helvetica,sans-Serif" font-weight="bold" font-size="9.00">worker</text>
</g>
<!-- src/App.tsx -->
<g id="node1" class="node">
<title>src/App.tsx</title>
<g id="a_node1"><a xlink:href="src/App.tsx" xlink:title="App.tsx">
<path fill="#bbfeff" stroke="black" d="M141.96,-189.88C141.96,-189.88 99.79,-189.88 99.79,-189.88 96.83,-189.88 93.88,-186.92 93.88,-183.96 93.88,-183.96 93.88,-178.04 93.88,-178.04 93.88,-175.08 96.83,-172.12 99.79,-172.12 99.79,-172.12 141.96,-172.12 141.96,-172.12 144.92,-172.12 147.88,-175.08 147.88,-178.04 147.88,-178.04 147.88,-183.96 147.88,-183.96 147.88,-186.92 144.92,-189.88 141.96,-189.88"/>
<text text-anchor="start" x="105.88" y="-177.32" font-family="Helvetica,sans-Serif" font-size="9.00">App.tsx</text>
</a>
</g>
</g>
<!-- src/Canvas/Playhead.tsx -->
<g id="node2" class="node">
<title>src/Canvas/Playhead.tsx</title>
<g id="a_node2"><a xlink:href="src/Canvas/Playhead.tsx" xlink:title="Playhead.tsx">
<path fill="#bbfeff" stroke="black" d="M226.58,-131.88C226.58,-131.88 169.92,-131.88 169.92,-131.88 166.96,-131.88 164,-128.92 164,-125.96 164,-125.96 164,-120.04 164,-120.04 164,-117.08 166.96,-114.12 169.92,-114.12 169.92,-114.12 226.58,-114.12 226.58,-114.12 229.54,-114.12 232.5,-117.08 232.5,-120.04 232.5,-120.04 232.5,-125.96 232.5,-125.96 232.5,-128.92 229.54,-131.88 226.58,-131.88"/>
<text text-anchor="start" x="172" y="-119.33" font-family="Helvetica,sans-Serif" font-size="9.00">Playhead.tsx</text>
</a>
</g>
</g>
<!-- src/App.tsx&#45;&gt;src/Canvas/Playhead.tsx -->
<g id="edge1" class="edge">
<title>src/App.tsx&#45;&gt;src/Canvas/Playhead.tsx</title>
<path fill="none" stroke="#000000" stroke-width="2" stroke-opacity="0.200000" d="M126.63,-171.7C131.59,-162.78 140.17,-149.31 156.2,-136.89"/>
<polygon fill="#000000" fill-opacity="0.200000" stroke="#000000" stroke-width="2" stroke-opacity="0.200000" points="157.41,-138.61 161.07,-133.41 154.97,-135.19 157.41,-138.61"/>
</g>
<!-- src/CipArea/ClipArea.tsx -->
<g id="node3" class="node">
<title>src/CipArea/ClipArea.tsx</title>
<g id="a_node3"><a xlink:href="src/CipArea/ClipArea.tsx" xlink:title="ClipArea.tsx">
<path fill="#bbfeff" stroke="black" d="M225.08,-235.88C225.08,-235.88 171.42,-235.88 171.42,-235.88 168.46,-235.88 165.5,-232.92 165.5,-229.96 165.5,-229.96 165.5,-224.04 165.5,-224.04 165.5,-221.08 168.46,-218.12 171.42,-218.12 171.42,-218.12 225.08,-218.12 225.08,-218.12 228.04,-218.12 231,-221.08 231,-224.04 231,-224.04 231,-229.96 231,-229.96 231,-232.92 228.04,-235.88 225.08,-235.88"/>
<text text-anchor="start" x="173.5" y="-223.32" font-family="Helvetica,sans-Serif" font-size="9.00">ClipArea.tsx</text>
</a>
</g>
</g>
<!-- src/App.tsx&#45;&gt;src/CipArea/ClipArea.tsx -->
<g id="edge2" class="edge">
<title>src/App.tsx&#45;&gt;src/CipArea/ClipArea.tsx</title>
<path fill="none" stroke="#000000" stroke-width="2" stroke-opacity="0.200000" d="M141.47,-190.36C143.85,-192.02 146.11,-193.9 148,-196 153.86,-202.5 149.47,-208.17 156,-214 156.5,-214.45 157.02,-214.88 157.56,-215.3"/>
<polygon fill="#000000" fill-opacity="0.200000" stroke="#000000" stroke-width="2" stroke-opacity="0.200000" points="156.34,-217.02 162.55,-218.37 158.54,-213.44 156.34,-217.02"/>
</g>
<!-- src/Core/AudioGraph.ts -->
<g id="node4" class="node">
<title>src/Core/AudioGraph.ts</title>
<g id="a_node4"><a xlink:href="src/Core/AudioGraph.ts" xlink:title="AudioGraph.ts">
<path fill="#ddfeff" stroke="black" d="M531.21,-145.88C531.21,-145.88 468.54,-145.88 468.54,-145.88 465.58,-145.88 462.62,-142.92 462.62,-139.96 462.62,-139.96 462.62,-134.04 462.62,-134.04 462.62,-131.08 465.58,-128.12 468.54,-128.12 468.54,-128.12 531.21,-128.12 531.21,-128.12 534.17,-128.12 537.12,-131.08 537.12,-134.04 537.12,-134.04 537.12,-139.96 537.12,-139.96 537.12,-142.92 534.17,-145.88 531.21,-145.88"/>
<text text-anchor="start" x="470.62" y="-133.32" font-family="Helvetica,sans-Serif" font-size="9.00">AudioGraph.ts</text>
</a>
</g>
</g>
<!-- src/App.tsx&#45;&gt;src/Core/AudioGraph.ts -->
<g id="edge3" class="edge">
<title>src/App.tsx&#45;&gt;src/Core/AudioGraph.ts</title>
<path fill="none" stroke="#000000" stroke-width="2" stroke-opacity="0.200000" d="M142.6,-190.26C144.69,-191.91 146.56,-193.82 148,-196 164.98,-221.78 139.72,-238.77 156,-265 181.84,-306.64 201.51,-311.1 248.5,-325 332.78,-349.94 381.82,-384.77 446.25,-325 472.8,-300.37 440.57,-196.58 460.68,-153.73"/>
<polygon fill="#000000" fill-opacity="0.200000" stroke="#000000" stroke-width="2" stroke-opacity="0.200000" points="462.34,-155.04 463.67,-148.82 458.76,-152.85 462.34,-155.04"/>
</g>
<!-- src/Core/MouseHandler.ts -->
<g id="node5" class="node">
<title>src/Core/MouseHandler.ts</title>
<g id="a_node5"><a xlink:href="src/Core/MouseHandler.ts" xlink:title="MouseHandler.ts">
<path fill="#ddfeff" stroke="black" d="M438.83,-175.88C438.83,-175.88 364.92,-175.88 364.92,-175.88 361.96,-175.88 359,-172.92 359,-169.96 359,-169.96 359,-164.04 359,-164.04 359,-161.08 361.96,-158.12 364.92,-158.12 364.92,-158.12 438.83,-158.12 438.83,-158.12 441.79,-158.12 444.75,-161.08 444.75,-164.04 444.75,-164.04 444.75,-169.96 444.75,-169.96 444.75,-172.92 441.79,-175.88 438.83,-175.88"/>
<text text-anchor="start" x="367" y="-163.32" font-family="Helvetica,sans-Serif" font-size="9.00">MouseHandler.ts</text>
</a>
</g>
</g>
<!-- src/App.tsx&#45;&gt;src/Core/MouseHandler.ts -->
<g id="edge4" class="edge">
<title>src/App.tsx&#45;&gt;src/Core/MouseHandler.ts</title>
<path fill="none" stroke="#000000" stroke-width="2" stroke-opacity="0.200000" d="M148.37,-179.67C194.56,-177.35 290.55,-172.54 349.96,-169.55"/>
<polygon fill="#000000" fill-opacity="0.200000" stroke="#000000" stroke-width="2" stroke-opacity="0.200000" points="349.9,-171.66 355.79,-169.26 349.69,-167.47 349.9,-171.66"/>
</g>
<!-- src/Core/TCMemory.ts -->
<g id="node6" class="node">
<title>src/Core/TCMemory.ts</title>
<g id="a_node6"><a xlink:href="src/Core/TCMemory.ts" xlink:title="TCMemory.ts">
<path fill="#ddfeff" stroke="black" d="M328.08,-131.88C328.08,-131.88 269.92,-131.88 269.92,-131.88 266.96,-131.88 264,-128.92 264,-125.96 264,-125.96 264,-120.04 264,-120.04 264,-117.08 266.96,-114.12 269.92,-114.12 269.92,-114.12 328.08,-114.12 328.08,-114.12 331.04,-114.12 334,-117.08 334,-120.04 334,-120.04 334,-125.96 334,-125.96 334,-128.92 331.04,-131.88 328.08,-131.88"/>
<text text-anchor="start" x="272" y="-119.33" font-family="Helvetica,sans-Serif" font-size="9.00">TCMemory.ts</text>
</a>
</g>
</g>
<!-- src/App.tsx&#45;&gt;src/Core/TCMemory.ts -->
<g id="edge5" class="edge">
<title>src/App.tsx&#45;&gt;src/Core/TCMemory.ts</title>
<path fill="none" stroke="#000000" stroke-width="2" stroke-opacity="0.200000" d="M148.36,-177.23C182.24,-172.31 236.99,-163.97 240.5,-161 248.77,-154.01 240.69,-145.5 248.5,-138 250.64,-135.95 253.05,-134.17 255.62,-132.64"/>
<polygon fill="#000000" fill-opacity="0.200000" stroke="#000000" stroke-width="2" stroke-opacity="0.200000" points="256.51,-134.55 261.01,-130.05 254.69,-130.76 256.51,-134.55"/>
</g>
<!-- src/Canvas/Playhead.tsx&#45;&gt;src/Core/TCMemory.ts -->
<g id="edge6" class="edge">
<title>src/Canvas/Playhead.tsx&#45;&gt;src/Core/TCMemory.ts</title>
<path fill="none" stroke="#000000" stroke-width="2" stroke-opacity="0.200000" d="M232.96,-123C240.11,-123 247.74,-123 255.18,-123"/>
<polygon fill="#000000" fill-opacity="0.200000" stroke="#000000" stroke-width="2" stroke-opacity="0.200000" points="254.75,-125.1 260.75,-123 254.75,-120.9 254.75,-125.1"/>
</g>
<!-- src/CipArea/ClipArea.css -->
<g id="node7" class="node">
<title>src/CipArea/ClipArea.css</title>
<g id="a_node7"><a xlink:href="src/CipArea/ClipArea.css" xlink:title="ClipArea.css">
<path fill="#ffffcc" stroke="black" d="M326.96,-235.88C326.96,-235.88 271.04,-235.88 271.04,-235.88 268.08,-235.88 265.12,-232.92 265.12,-229.96 265.12,-229.96 265.12,-224.04 265.12,-224.04 265.12,-221.08 268.08,-218.12 271.04,-218.12 271.04,-218.12 326.96,-218.12 326.96,-218.12 329.92,-218.12 332.88,-221.08 332.88,-224.04 332.88,-224.04 332.88,-229.96 332.88,-229.96 332.88,-232.92 329.92,-235.88 326.96,-235.88"/>
<text text-anchor="start" x="273.12" y="-223.32" font-family="Helvetica,sans-Serif" font-size="9.00">ClipArea.css</text>
</a>
</g>
</g>
<!-- src/CipArea/ClipArea.tsx&#45;&gt;src/CipArea/ClipArea.css -->
<g id="edge10" class="edge">
<title>src/CipArea/ClipArea.tsx&#45;&gt;src/CipArea/ClipArea.css</title>
<path fill="none" stroke="#000000" stroke-width="2" stroke-opacity="0.200000" d="M231.31,-227C239.17,-227 247.7,-227 255.95,-227"/>
<polygon fill="#000000" fill-opacity="0.200000" stroke="#000000" stroke-width="2" stroke-opacity="0.200000" points="255.72,-229.1 261.72,-227 255.72,-224.9 255.72,-229.1"/>
</g>
<!-- src/Clip/Clip.tsx -->
<g id="node8" class="node">
<title>src/Clip/Clip.tsx</title>
<g id="a_node8"><a xlink:href="src/Clip/Clip.tsx" xlink:title="Clip.tsx">
<path fill="#bbfeff" stroke="black" d="M320.08,-295.88C320.08,-295.88 277.92,-295.88 277.92,-295.88 274.96,-295.88 272,-292.92 272,-289.96 272,-289.96 272,-284.04 272,-284.04 272,-281.08 274.96,-278.12 277.92,-278.12 277.92,-278.12 320.08,-278.12 320.08,-278.12 323.04,-278.12 326,-281.08 326,-284.04 326,-284.04 326,-289.96 326,-289.96 326,-292.92 323.04,-295.88 320.08,-295.88"/>
<text text-anchor="start" x="284" y="-283.32" font-family="Helvetica,sans-Serif" font-size="9.00">Clip.tsx</text>
</a>
</g>
</g>
<!-- src/CipArea/ClipArea.tsx&#45;&gt;src/Clip/Clip.tsx -->
<g id="edge7" class="edge">
<title>src/CipArea/ClipArea.tsx&#45;&gt;src/Clip/Clip.tsx</title>
<path fill="none" stroke="#000000" stroke-width="2" stroke-opacity="0.200000" d="M231.23,-233.56C234.64,-235.24 237.84,-237.35 240.5,-240 248.77,-248.23 240.71,-256.32 248.5,-265 252.73,-269.72 258.16,-273.47 263.87,-276.45"/>
<polygon fill="#000000" fill-opacity="0.200000" stroke="#000000" stroke-width="2" stroke-opacity="0.200000" points="262.66,-278.21 268.99,-278.79 264.4,-274.38 262.66,-278.21"/>
</g>
<!-- src/Core/ClipConstructor.ts -->
<g id="node9" class="node">
<title>src/Core/ClipConstructor.ts</title>
<g id="a_node9"><a xlink:href="src/Core/ClipConstructor.ts" xlink:title="ClipConstructor.ts">
<path fill="#ddfeff" stroke="black" d="M440.33,-145.88C440.33,-145.88 363.42,-145.88 363.42,-145.88 360.46,-145.88 357.5,-142.92 357.5,-139.96 357.5,-139.96 357.5,-134.04 357.5,-134.04 357.5,-131.08 360.46,-128.12 363.42,-128.12 363.42,-128.12 440.33,-128.12 440.33,-128.12 443.29,-128.12 446.25,-131.08 446.25,-134.04 446.25,-134.04 446.25,-139.96 446.25,-139.96 446.25,-142.92 443.29,-145.88 440.33,-145.88"/>
<text text-anchor="start" x="365.5" y="-133.32" font-family="Helvetica,sans-Serif" font-size="9.00">ClipConstructor.ts</text>
</a>
</g>
</g>
<!-- src/CipArea/ClipArea.tsx&#45;&gt;src/Core/ClipConstructor.ts -->
<g id="edge8" class="edge">
<title>src/CipArea/ClipArea.tsx&#45;&gt;src/Core/ClipConstructor.ts</title>
<path fill="none" stroke="#000000" stroke-width="2" stroke-opacity="0.200000" d="M229.99,-217.66C233.55,-216.48 237.12,-215.24 240.5,-214 289.85,-195.86 311.14,-203.97 349.5,-168 355.3,-162.56 351.52,-157.24 357.5,-152 357.81,-151.72 358.13,-151.45 358.46,-151.19"/>
<polygon fill="#000000" fill-opacity="0.200000" stroke="#000000" stroke-width="2" stroke-opacity="0.200000" points="359.51,-153.01 363.36,-147.96 357.2,-149.5 359.51,-153.01"/>
</g>
<!-- src/Core/FileOpener.ts -->
<g id="node10" class="node">
<title>src/Core/FileOpener.ts</title>
<g id="a_node10"><a xlink:href="src/Core/FileOpener.ts" xlink:title="FileOpener.ts">
<path fill="#ddfeff" stroke="black" d="M328.46,-161.88C328.46,-161.88 269.54,-161.88 269.54,-161.88 266.58,-161.88 263.62,-158.92 263.62,-155.96 263.62,-155.96 263.62,-150.04 263.62,-150.04 263.62,-147.08 266.58,-144.12 269.54,-144.12 269.54,-144.12 328.46,-144.12 328.46,-144.12 331.42,-144.12 334.38,-147.08 334.38,-150.04 334.38,-150.04 334.38,-155.96 334.38,-155.96 334.38,-158.92 331.42,-161.88 328.46,-161.88"/>
<text text-anchor="start" x="271.62" y="-149.32" font-family="Helvetica,sans-Serif" font-size="9.00">FileOpener.ts</text>
</a>
</g>
</g>
<!-- src/CipArea/ClipArea.tsx&#45;&gt;src/Core/FileOpener.ts -->
<g id="edge9" class="edge">
<title>src/CipArea/ClipArea.tsx&#45;&gt;src/Core/FileOpener.ts</title>
<path fill="none" stroke="#000000" stroke-width="2" stroke-opacity="0.200000" d="M231.37,-219.95C234.68,-218.36 237.81,-216.4 240.5,-214 247.03,-208.17 243.29,-203.04 248.5,-196 256.48,-185.21 267.62,-175.23 277.3,-167.61"/>
<polygon fill="#000000" fill-opacity="0.200000" stroke="#000000" stroke-width="2" stroke-opacity="0.200000" points="278.43,-169.4 281.94,-164.1 275.89,-166.05 278.43,-169.4"/>
</g>
<!-- src/Core/ZoomHandler.ts -->
<g id="node12" class="node">
<title>src/Core/ZoomHandler.ts</title>
<g id="a_node12"><a xlink:href="src/Core/ZoomHandler.ts" xlink:title="ZoomHandler.ts">
<path fill="#ddfeff" stroke="black" d="M534.58,-175.88C534.58,-175.88 465.17,-175.88 465.17,-175.88 462.21,-175.88 459.25,-172.92 459.25,-169.96 459.25,-169.96 459.25,-164.04 459.25,-164.04 459.25,-161.08 462.21,-158.12 465.17,-158.12 465.17,-158.12 534.58,-158.12 534.58,-158.12 537.54,-158.12 540.5,-161.08 540.5,-164.04 540.5,-164.04 540.5,-169.96 540.5,-169.96 540.5,-172.92 537.54,-175.88 534.58,-175.88"/>
<text text-anchor="start" x="467.25" y="-163.32" font-family="Helvetica,sans-Serif" font-size="9.00">ZoomHandler.ts</text>
</a>
</g>
</g>
<!-- src/Core/MouseHandler.ts&#45;&gt;src/Core/ZoomHandler.ts -->
<g id="edge22" class="edge">
<title>src/Core/MouseHandler.ts&#45;&gt;src/Core/ZoomHandler.ts</title>
<path fill="none" stroke="#000000" stroke-width="2" stroke-opacity="0.200000" d="M444.98,-167C446.72,-167 448.47,-167 450.22,-167"/>
<polygon fill="#000000" fill-opacity="0.200000" stroke="#000000" stroke-width="2" stroke-opacity="0.200000" points="449.91,-169.1 455.91,-167 449.91,-164.9 449.91,-169.1"/>
</g>
<!-- src/Types.ts -->
<g id="node14" class="node">
<title>src/Types.ts</title>
<g id="a_node14"><a xlink:href="src/Types.ts" xlink:title="Types.ts">
<path fill="#ddfeff" stroke="black" d="M520.96,-67.88C520.96,-67.88 478.79,-67.88 478.79,-67.88 475.83,-67.88 472.88,-64.92 472.88,-61.96 472.88,-61.96 472.88,-56.04 472.88,-56.04 472.88,-53.08 475.83,-50.12 478.79,-50.12 478.79,-50.12 520.96,-50.12 520.96,-50.12 523.92,-50.12 526.88,-53.08 526.88,-56.04 526.88,-56.04 526.88,-61.96 526.88,-61.96 526.88,-64.92 523.92,-67.88 520.96,-67.88"/>
<text text-anchor="start" x="483" y="-55.33" font-family="Helvetica,sans-Serif" font-size="9.00">Types.ts</text>
</a>
</g>
</g>
<!-- src/Core/MouseHandler.ts&#45;&gt;src/Types.ts -->
<g id="edge21" class="edge">
<title>src/Core/MouseHandler.ts&#45;&gt;src/Types.ts</title>
<path fill="none" stroke="#000000" stroke-width="2" stroke-opacity="0.200000" d="M439.82,-157.67C442.21,-156.07 444.4,-154.19 446.25,-152 469.19,-124.8 436.4,-100.28 459.25,-73 460.87,-71.06 462.79,-69.39 464.88,-67.95"/>
<polygon fill="#000000" fill-opacity="0.200000" stroke="#000000" stroke-width="2" stroke-opacity="0.200000" points="465.54,-69.98 469.85,-65.31 463.57,-66.27 465.54,-69.98"/>
</g>
<!-- src/Clip/Clip.tsx&#45;&gt;src/Core/MouseHandler.ts -->
<g id="edge12" class="edge">
<title>src/Clip/Clip.tsx&#45;&gt;src/Core/MouseHandler.ts</title>
<path fill="none" stroke="#000000" stroke-width="2" stroke-opacity="0.200000" d="M326.49,-280.56C335,-277.24 343.72,-272.3 349.5,-265 361.31,-250.11 349.69,-240.32 357.5,-223 364.32,-207.88 375.99,-193.15 385.51,-182.59"/>
<polygon fill="#000000" fill-opacity="0.200000" stroke="#000000" stroke-width="2" stroke-opacity="0.200000" points="387.04,-184.03 389.61,-178.21 383.98,-181.16 387.04,-184.03"/>
</g>
<!-- src/Clip/Clip.tsx&#45;&gt;src/Core/ClipConstructor.ts -->
<g id="edge11" class="edge">
<title>src/Clip/Clip.tsx&#45;&gt;src/Core/ClipConstructor.ts</title>
<path fill="none" stroke="#000000" stroke-width="2" stroke-opacity="0.200000" d="M326.47,-281.12C335.19,-277.84 344.05,-272.78 349.5,-265 362.71,-246.16 345.65,-184.04 359.06,-153.78"/>
<polygon fill="#000000" fill-opacity="0.200000" stroke="#000000" stroke-width="2" stroke-opacity="0.200000" points="360.8,-154.95 362.13,-148.74 357.21,-152.77 360.8,-154.95"/>
</g>
<!-- src/Clip/Clip.css -->
<g id="node11" class="node">
<title>src/Clip/Clip.css</title>
<g id="a_node11"><a xlink:href="src/Clip/Clip.css" xlink:title="Clip.css">
<path fill="#ffffcc" stroke="black" d="M422.96,-295.88C422.96,-295.88 380.79,-295.88 380.79,-295.88 377.83,-295.88 374.88,-292.92 374.88,-289.96 374.88,-289.96 374.88,-284.04 374.88,-284.04 374.88,-281.08 377.83,-278.12 380.79,-278.12 380.79,-278.12 422.96,-278.12 422.96,-278.12 425.92,-278.12 428.88,-281.08 428.88,-284.04 428.88,-284.04 428.88,-289.96 428.88,-289.96 428.88,-292.92 425.92,-295.88 422.96,-295.88"/>
<text text-anchor="start" x="385.75" y="-283.32" font-family="Helvetica,sans-Serif" font-size="9.00">Clip.css</text>
</a>
</g>
</g>
<!-- src/Clip/Clip.tsx&#45;&gt;src/Clip/Clip.css -->
<g id="edge14" class="edge">
<title>src/Clip/Clip.tsx&#45;&gt;src/Clip/Clip.css</title>
<path fill="none" stroke="#000000" stroke-width="2" stroke-opacity="0.200000" d="M326.24,-287C338.29,-287 352.75,-287 365.72,-287"/>
<polygon fill="#000000" fill-opacity="0.200000" stroke="#000000" stroke-width="2" stroke-opacity="0.200000" points="365.39,-289.1 371.39,-287 365.39,-284.9 365.39,-289.1"/>
</g>
<!-- src/Clip/Clip.tsx&#45;&gt;src/Core/ZoomHandler.ts -->
<g id="edge13" class="edge">
<title>src/Clip/Clip.tsx&#45;&gt;src/Core/ZoomHandler.ts</title>
<path fill="none" stroke="#000000" stroke-width="2" stroke-opacity="0.200000" d="M323.05,-277.68C331.51,-274.02 341.08,-269.59 349.5,-265 398.03,-238.52 451.4,-201.41 479.34,-181.3"/>
<polygon fill="#000000" fill-opacity="0.200000" stroke="#000000" stroke-width="2" stroke-opacity="0.200000" points="480.43,-183.1 484.06,-177.88 477.97,-179.7 480.43,-183.1"/>
</g>
<!-- src/Core/ClipConstructor.ts&#45;&gt;src/Core/AudioGraph.ts -->
<g id="edge15" class="edge">
<title>src/Core/ClipConstructor.ts&#45;&gt;src/Core/AudioGraph.ts</title>
<path fill="none" stroke="#000000" stroke-width="2" stroke-opacity="0.200000" d="M446.66,-137C448.95,-137 451.26,-137 453.56,-137"/>
<polygon fill="#000000" fill-opacity="0.200000" stroke="#000000" stroke-width="2" stroke-opacity="0.200000" points="453.31,-139.1 459.31,-137 453.31,-134.9 453.31,-139.1"/>
</g>
<!-- src/Core/ClipConstructor.ts&#45;&gt;src/Core/ZoomHandler.ts -->
<g id="edge16" class="edge">
<title>src/Core/ClipConstructor.ts&#45;&gt;src/Core/ZoomHandler.ts</title>
<path fill="none" stroke="#000000" stroke-width="2" stroke-opacity="0.200000" d="M432.72,-146.33C441.57,-149.09 451.39,-152.16 460.69,-155.07"/>
<polygon fill="#000000" fill-opacity="0.200000" stroke="#000000" stroke-width="2" stroke-opacity="0.200000" points="459.8,-156.99 466.16,-156.78 461.05,-152.98 459.8,-156.99"/>
</g>
<!-- src/Core/FileOpener.ts&#45;&gt;src/Core/AudioGraph.ts -->
<g id="edge18" class="edge">
<title>src/Core/FileOpener.ts&#45;&gt;src/Core/AudioGraph.ts</title>
<path fill="none" stroke="#000000" stroke-width="2" stroke-opacity="0.200000" d="M334.86,-146.4C340.15,-144.32 345.24,-141.59 349.5,-138 355.58,-132.87 350.74,-126.18 357.5,-122 391.05,-101.26 407.19,-116.54 446.25,-122 451.75,-122.77 457.47,-123.97 463.04,-125.36"/>
<polygon fill="#000000" fill-opacity="0.200000" stroke="#000000" stroke-width="2" stroke-opacity="0.200000" points="462.34,-127.34 468.68,-126.88 463.43,-123.29 462.34,-127.34"/>
</g>
<!-- src/Core/FileOpener.ts&#45;&gt;src/Core/ClipConstructor.ts -->
<g id="edge19" class="edge">
<title>src/Core/FileOpener.ts&#45;&gt;src/Core/ClipConstructor.ts</title>
<path fill="none" stroke="#000000" stroke-width="2" stroke-opacity="0.200000" d="M334.72,-147.49C339.09,-146.8 343.64,-146.08 348.22,-145.35"/>
<polygon fill="#000000" fill-opacity="0.200000" stroke="#000000" stroke-width="2" stroke-opacity="0.200000" points="348.42,-147.45 354.02,-144.43 347.76,-143.3 348.42,-147.45"/>
</g>
<!-- src/Core/FileOpener.ts&#45;&gt;src/Types.ts -->
<g id="edge17" class="edge">
<title>src/Core/FileOpener.ts&#45;&gt;src/Types.ts</title>
<path fill="none" stroke="#000000" stroke-width="2" stroke-opacity="0.200000" d="M334.73,-148.04C340.36,-145.8 345.6,-142.58 349.5,-138 366.92,-117.5 338.49,-97.03 357.5,-78 384.94,-50.53 431.78,-49.58 463.98,-52.97"/>
<polygon fill="#000000" fill-opacity="0.200000" stroke="#000000" stroke-width="2" stroke-opacity="0.200000" points="463.43,-55.02 469.64,-53.66 463.94,-50.85 463.43,-55.02"/>
</g>
<!-- src/Core/Utils.ts -->
<g id="node15" class="node">
<title>src/Core/Utils.ts</title>
<g id="a_node15"><a xlink:href="src/Core/Utils.ts" xlink:title="Utils.ts">
<path fill="#ddfeff" stroke="black" d="M422.96,-101.88C422.96,-101.88 380.79,-101.88 380.79,-101.88 377.83,-101.88 374.88,-98.92 374.88,-95.96 374.88,-95.96 374.88,-90.04 374.88,-90.04 374.88,-87.08 377.83,-84.12 380.79,-84.12 380.79,-84.12 422.96,-84.12 422.96,-84.12 425.92,-84.12 428.88,-87.08 428.88,-90.04 428.88,-90.04 428.88,-95.96 428.88,-95.96 428.88,-98.92 425.92,-101.88 422.96,-101.88"/>
<text text-anchor="start" x="388.38" y="-89.33" font-family="Helvetica,sans-Serif" font-size="9.00">Utils.ts</text>
</a>
</g>
</g>
<!-- src/Core/FileOpener.ts&#45;&gt;src/Core/Utils.ts -->
<g id="edge20" class="edge">
<title>src/Core/FileOpener.ts&#45;&gt;src/Core/Utils.ts</title>
<path fill="none" stroke="#000000" stroke-width="2" stroke-opacity="0.200000" d="M334.68,-147.32C340.17,-145.14 345.39,-142.14 349.5,-138 358.32,-129.12 349.13,-120.3 357.5,-111 360.15,-108.06 363.35,-105.58 366.81,-103.51"/>
<polygon fill="#000000" fill-opacity="0.200000" stroke="#000000" stroke-width="2" stroke-opacity="0.200000" points="367.53,-105.49 371.94,-100.92 365.64,-101.74 367.53,-105.49"/>
</g>
<!-- src/Core/Dispatcher.ts -->
<g id="node13" class="node">
<title>src/Core/Dispatcher.ts</title>
<g id="a_node13"><a xlink:href="src/Core/Dispatcher.ts" xlink:title="no&#45;orphans">
<path fill="#ccffcc" stroke="orange" d="M327.71,-101.88C327.71,-101.88 270.29,-101.88 270.29,-101.88 267.33,-101.88 264.38,-98.92 264.38,-95.96 264.38,-95.96 264.38,-90.04 264.38,-90.04 264.38,-87.08 267.33,-84.12 270.29,-84.12 270.29,-84.12 327.71,-84.12 327.71,-84.12 330.67,-84.12 333.62,-87.08 333.62,-90.04 333.62,-90.04 333.62,-95.96 333.62,-95.96 333.62,-98.92 330.67,-101.88 327.71,-101.88"/>
<text text-anchor="start" x="272.38" y="-89.33" font-family="Helvetica,sans-Serif" font-size="9.00" fill="orange">Dispatcher.ts</text>
</a>
</g>
</g>
<!-- src/Core/Utils.ts&#45;&gt;src/Types.ts -->
<g id="edge23" class="edge">
<title>src/Core/Utils.ts&#45;&gt;src/Types.ts</title>
<path fill="none" stroke="#000000" stroke-width="2" stroke-opacity="0.200000" d="M429.32,-86.01C434.98,-84.25 440.88,-82.23 446.25,-80 452.31,-77.49 453.25,-75.66 459.25,-73 460.98,-72.23 462.78,-71.48 464.59,-70.74"/>
<polygon fill="#000000" fill-opacity="0.200000" stroke="#000000" stroke-width="2" stroke-opacity="0.200000" points="464.98,-72.84 469.82,-68.71 463.47,-68.92 464.98,-72.84"/>
</g>
<!-- src/index.css -->
<g id="node16" class="node">
<title>src/index.css</title>
<g id="a_node16"><a xlink:href="src/index.css" xlink:title="index.css">
<path fill="#ffffcc" stroke="black" d="M142.08,-219.88C142.08,-219.88 99.67,-219.88 99.67,-219.88 96.71,-219.88 93.75,-216.92 93.75,-213.96 93.75,-213.96 93.75,-208.04 93.75,-208.04 93.75,-205.08 96.71,-202.12 99.67,-202.12 99.67,-202.12 142.08,-202.12 142.08,-202.12 145.04,-202.12 148,-205.08 148,-208.04 148,-208.04 148,-213.96 148,-213.96 148,-216.92 145.04,-219.88 142.08,-219.88"/>
<text text-anchor="start" x="101.75" y="-207.32" font-family="Helvetica,sans-Serif" font-size="9.00">index.css</text>
</a>
</g>
</g>
<!-- src/main.tsx -->
<g id="node17" class="node">
<title>src/main.tsx</title>
<g id="a_node17"><a xlink:href="src/main.tsx" xlink:title="main.tsx">
<path fill="#bbfeff" stroke="black" d="M69.46,-204.88C69.46,-204.88 27.29,-204.88 27.29,-204.88 24.33,-204.88 21.38,-201.92 21.38,-198.96 21.38,-198.96 21.38,-193.04 21.38,-193.04 21.38,-190.08 24.33,-187.12 27.29,-187.12 27.29,-187.12 69.46,-187.12 69.46,-187.12 72.42,-187.12 75.38,-190.08 75.38,-193.04 75.38,-193.04 75.38,-198.96 75.38,-198.96 75.38,-201.92 72.42,-204.88 69.46,-204.88"/>
<text text-anchor="start" x="31.5" y="-192.32" font-family="Helvetica,sans-Serif" font-size="9.00">main.tsx</text>
</a>
</g>
</g>
<!-- src/main.tsx&#45;&gt;src/App.tsx -->
<g id="edge24" class="edge">
<title>src/main.tsx&#45;&gt;src/App.tsx</title>
<path fill="none" stroke="#000000" stroke-width="2" stroke-opacity="0.200000" d="M75.63,-190.41C78.69,-189.76 81.86,-189.09 85.02,-188.42"/>
<polygon fill="#000000" fill-opacity="0.200000" stroke="#000000" stroke-width="2" stroke-opacity="0.200000" points="85.44,-190.47 90.88,-187.17 84.57,-186.36 85.44,-190.47"/>
</g>
<!-- src/main.tsx&#45;&gt;src/index.css -->
<g id="edge25" class="edge">
<title>src/main.tsx&#45;&gt;src/index.css</title>
<path fill="none" stroke="#000000" stroke-width="2" stroke-opacity="0.200000" d="M75.63,-201.59C78.61,-202.22 81.69,-202.88 84.77,-203.53"/>
<polygon fill="#000000" fill-opacity="0.200000" stroke="#000000" stroke-width="2" stroke-opacity="0.200000" points="84.1,-205.54 90.41,-204.73 84.97,-201.43 84.1,-205.54"/>
</g>
<!-- src/vite&#45;env.d.ts -->
<g id="node18" class="node">
<title>src/vite&#45;env.d.ts</title>
<g id="a_node18"><a xlink:href="src/vite-env.d.ts" xlink:title="vite&#45;env.d.ts">
<path fill="#ccffcc" stroke="black" d="M74.83,-96.88C74.83,-96.88 21.92,-96.88 21.92,-96.88 18.96,-96.88 16,-93.92 16,-90.96 16,-90.96 16,-85.04 16,-85.04 16,-82.08 18.96,-79.12 21.92,-79.12 21.92,-79.12 74.83,-79.12 74.83,-79.12 77.79,-79.12 80.75,-82.08 80.75,-85.04 80.75,-85.04 80.75,-90.96 80.75,-90.96 80.75,-93.92 77.79,-96.88 74.83,-96.88"/>
<text text-anchor="start" x="24" y="-84.33" font-family="Helvetica,sans-Serif" font-size="9.00">vite&#45;env.d.ts</text>
</a>
</g>
</g>
<!-- src/worker/OpenerWorker.ts -->
<g id="node19" class="node">
<title>src/worker/OpenerWorker.ts</title>
<g id="a_node19"><a xlink:href="src/worker/OpenerWorker.ts" xlink:title="OpenerWorker.ts">
<path fill="#ddfeff" stroke="black" d="M335.58,-41.88C335.58,-41.88 262.42,-41.88 262.42,-41.88 259.46,-41.88 256.5,-38.92 256.5,-35.96 256.5,-35.96 256.5,-30.04 256.5,-30.04 256.5,-27.08 259.46,-24.12 262.42,-24.12 262.42,-24.12 335.58,-24.12 335.58,-24.12 338.54,-24.12 341.5,-27.08 341.5,-30.04 341.5,-30.04 341.5,-35.96 341.5,-35.96 341.5,-38.92 338.54,-41.88 335.58,-41.88"/>
<text text-anchor="start" x="264.5" y="-29.32" font-family="Helvetica,sans-Serif" font-size="9.00">OpenerWorker.ts</text>
</a>
</g>
</g>
<!-- src/worker/OpenerWorker.ts&#45;&gt;src/Types.ts -->
<g id="edge27" class="edge">
<title>src/worker/OpenerWorker.ts&#45;&gt;src/Types.ts</title>
<path fill="none" stroke="#000000" stroke-width="2" stroke-opacity="0.200000" d="M341.69,-38.45C377.87,-43.18 429.65,-49.95 463.75,-54.41"/>
<polygon fill="#000000" fill-opacity="0.200000" stroke="#000000" stroke-width="2" stroke-opacity="0.200000" points="463.23,-56.46 469.45,-55.15 463.77,-52.29 463.23,-56.46"/>
</g>
<!-- src/worker/OpenerWorker.ts&#45;&gt;src/Core/Utils.ts -->
<g id="edge26" class="edge">
<title>src/worker/OpenerWorker.ts&#45;&gt;src/Core/Utils.ts</title>
<path fill="none" stroke="#000000" stroke-width="2" stroke-opacity="0.200000" d="M311.51,-42.09C321.61,-50.12 336.65,-62.19 349.5,-73 353.12,-76.04 353.37,-77.71 357.5,-80 360.2,-81.49 363.08,-82.83 366.04,-84.03"/>
<polygon fill="#000000" fill-opacity="0.200000" stroke="#000000" stroke-width="2" stroke-opacity="0.200000" points="365.25,-85.97 371.6,-86.02 366.66,-82.02 365.25,-85.97"/>
</g>
</g>
</svg>
